<mxfile host="app.diagrams.net" modified="2021-04-18T13:54:09.238Z" agent="5.0 (X11; Linux x86_64) AppleWebKit/537.36 (KHTML, like Gecko) Chrome/88.0.4324.182 Safari/537.36" etag="OTw0dEM2AMENFNDclUfS" version="14.5.10" type="github">
  <diagram id="kjD2ABby1eE_ziVOVx_o" name="Page-1">
    <mxGraphModel dx="1355" dy="745" grid="1" gridSize="19" guides="1" tooltips="1" connect="1" arrows="1" fold="1" page="1" pageScale="1" pageWidth="827" pageHeight="1169" math="0" shadow="0">
      <root>
        <mxCell id="0" />
        <mxCell id="1" parent="0" />
        <mxCell id="Uh-4Brie1c1DzjX1YJF2-3" value="" style="edgeStyle=orthogonalEdgeStyle;rounded=0;orthogonalLoop=1;jettySize=auto;html=1;strokeWidth=2;" parent="1" source="Uh-4Brie1c1DzjX1YJF2-1" target="Uh-4Brie1c1DzjX1YJF2-2" edge="1">
          <mxGeometry relative="1" as="geometry" />
        </mxCell>
        <mxCell id="Uh-4Brie1c1DzjX1YJF2-1" value="&lt;font style=&quot;font-size: 19px&quot;&gt;URDF&lt;/font&gt;" style="rounded=1;whiteSpace=wrap;html=1;strokeWidth=2;" parent="1" vertex="1">
          <mxGeometry x="114" y="280" width="120" height="60" as="geometry" />
        </mxCell>
        <mxCell id="Uh-4Brie1c1DzjX1YJF2-7" value="" style="edgeStyle=orthogonalEdgeStyle;rounded=0;orthogonalLoop=1;jettySize=auto;html=1;startArrow=none;exitX=1;exitY=0.5;exitDx=0;exitDy=0;strokeWidth=2;" parent="1" source="Uh-4Brie1c1DzjX1YJF2-2" target="Uh-4Brie1c1DzjX1YJF2-6" edge="1">
          <mxGeometry relative="1" as="geometry">
            <mxPoint x="530" y="300" as="sourcePoint" />
          </mxGeometry>
        </mxCell>
        <mxCell id="Uh-4Brie1c1DzjX1YJF2-2" value="&lt;font style=&quot;font-size: 18px&quot;&gt;Kinematics and Dynamics Library&lt;/font&gt;" style="rounded=1;whiteSpace=wrap;html=1;fillColor=#647687;strokeColor=#314354;fontColor=#ffffff;" parent="1" vertex="1">
          <mxGeometry x="330" y="280" width="120" height="60" as="geometry" />
        </mxCell>
        <mxCell id="Uh-4Brie1c1DzjX1YJF2-5" style="edgeStyle=orthogonalEdgeStyle;rounded=0;orthogonalLoop=1;jettySize=auto;html=1;entryX=0.5;entryY=1;entryDx=0;entryDy=0;strokeWidth=2;" parent="1" source="Uh-4Brie1c1DzjX1YJF2-4" target="Uh-4Brie1c1DzjX1YJF2-2" edge="1">
          <mxGeometry relative="1" as="geometry" />
        </mxCell>
        <mxCell id="Uh-4Brie1c1DzjX1YJF2-4" value="&lt;font style=&quot;font-size: 19px&quot;&gt;Joint States&lt;/font&gt;" style="rounded=1;whiteSpace=wrap;html=1;strokeWidth=2;" parent="1" vertex="1">
          <mxGeometry x="114" y="360" width="120" height="60" as="geometry" />
        </mxCell>
        <mxCell id="Uh-4Brie1c1DzjX1YJF2-17" value="" style="edgeStyle=orthogonalEdgeStyle;rounded=0;orthogonalLoop=1;jettySize=auto;html=1;strokeWidth=2;" parent="1" source="Uh-4Brie1c1DzjX1YJF2-6" target="Uh-4Brie1c1DzjX1YJF2-16" edge="1">
          <mxGeometry relative="1" as="geometry" />
        </mxCell>
        <mxCell id="Uh-4Brie1c1DzjX1YJF2-6" value="&lt;font style=&quot;font-size: 19px&quot;&gt;BVH&lt;/font&gt;" style="whiteSpace=wrap;html=1;rounded=1;strokeWidth=2;" parent="1" vertex="1">
          <mxGeometry x="680" y="280" width="120" height="60" as="geometry" />
        </mxCell>
        <mxCell id="Uh-4Brie1c1DzjX1YJF2-11" style="edgeStyle=orthogonalEdgeStyle;rounded=0;orthogonalLoop=1;jettySize=auto;html=1;exitX=1;exitY=0.5;exitDx=0;exitDy=0;entryX=0;entryY=0.75;entryDx=0;entryDy=0;strokeWidth=2;" parent="1" source="Uh-4Brie1c1DzjX1YJF2-10" target="Uh-4Brie1c1DzjX1YJF2-6" edge="1">
          <mxGeometry relative="1" as="geometry">
            <Array as="points">
              <mxPoint x="470" y="450" />
              <mxPoint x="470" y="325" />
            </Array>
          </mxGeometry>
        </mxCell>
        <mxCell id="Uh-4Brie1c1DzjX1YJF2-10" value="&lt;font style=&quot;font-size: 19px&quot;&gt;Mesh Files&lt;/font&gt;" style="rounded=1;whiteSpace=wrap;html=1;strokeWidth=2;" parent="1" vertex="1">
          <mxGeometry x="330" y="420" width="120" height="60" as="geometry" />
        </mxCell>
        <mxCell id="Uh-4Brie1c1DzjX1YJF2-14" value="&lt;font style=&quot;font-size: 18px&quot;&gt;Attitude of each link&lt;/font&gt;" style="text;html=1;strokeColor=none;fillColor=none;align=center;verticalAlign=middle;whiteSpace=wrap;rounded=0;" parent="1" vertex="1">
          <mxGeometry x="470" y="280" width="170" height="30" as="geometry" />
        </mxCell>
        <mxCell id="Uh-4Brie1c1DzjX1YJF2-15" value="&lt;font style=&quot;font-size: 18px&quot;&gt;3D model of each link&lt;/font&gt;" style="text;html=1;strokeColor=none;fillColor=none;align=center;verticalAlign=middle;whiteSpace=wrap;rounded=0;" parent="1" vertex="1">
          <mxGeometry x="470" y="330" width="190" height="30" as="geometry" />
        </mxCell>
        <mxCell id="Uh-4Brie1c1DzjX1YJF2-16" value="&lt;font style=&quot;font-size: 18px&quot;&gt;Collision &lt;br&gt;Detection&lt;/font&gt;" style="whiteSpace=wrap;html=1;rounded=1;strokeWidth=2;" parent="1" vertex="1">
          <mxGeometry x="880" y="280" width="120" height="60" as="geometry" />
        </mxCell>
        <mxCell id="Uh-4Brie1c1DzjX1YJF2-23" value="" style="edgeStyle=orthogonalEdgeStyle;rounded=0;orthogonalLoop=1;jettySize=auto;html=1;strokeWidth=2;" parent="1" source="Uh-4Brie1c1DzjX1YJF2-21" target="Uh-4Brie1c1DzjX1YJF2-22" edge="1">
          <mxGeometry relative="1" as="geometry" />
        </mxCell>
        <mxCell id="Uh-4Brie1c1DzjX1YJF2-21" value="&lt;font style=&quot;font-size: 19px&quot;&gt;Map&lt;/font&gt;" style="rounded=1;whiteSpace=wrap;html=1;strokeWidth=2;" parent="1" vertex="1">
          <mxGeometry x="880" y="50" width="120" height="60" as="geometry" />
        </mxCell>
        <mxCell id="Uh-4Brie1c1DzjX1YJF2-24" value="" style="edgeStyle=orthogonalEdgeStyle;rounded=0;orthogonalLoop=1;jettySize=auto;html=1;strokeWidth=2;" parent="1" source="Uh-4Brie1c1DzjX1YJF2-22" target="Uh-4Brie1c1DzjX1YJF2-16" edge="1">
          <mxGeometry relative="1" as="geometry" />
        </mxCell>
        <mxCell id="Uh-4Brie1c1DzjX1YJF2-22" value="&lt;span style=&quot;font-size: 19px&quot;&gt;Voxels&lt;/span&gt;" style="rounded=1;whiteSpace=wrap;html=1;strokeWidth=2;" parent="1" vertex="1">
          <mxGeometry x="880" y="170" width="120" height="60" as="geometry" />
        </mxCell>
        <mxCell id="Uh-4Brie1c1DzjX1YJF2-25" value="" style="rounded=0;whiteSpace=wrap;html=1;dashed=1;strokeColor=#6c8ebf;fillColor=none;strokeWidth=5;" parent="1" vertex="1">
          <mxGeometry x="660" y="133" width="356" height="247" as="geometry" />
        </mxCell>
        <mxCell id="Uh-4Brie1c1DzjX1YJF2-26" value="&lt;font style=&quot;font-size: 19px&quot;&gt;Flexible Collision Library&lt;/font&gt;" style="text;html=1;strokeColor=#314354;fillColor=#647687;align=center;verticalAlign=middle;whiteSpace=wrap;rounded=0;dashed=1;fontColor=#ffffff;" parent="1" vertex="1">
          <mxGeometry x="690" y="150" width="150" height="50" as="geometry" />
        </mxCell>
      </root>
    </mxGraphModel>
  </diagram>
</mxfile>
